# xmcd
#
# Track frame offsets: 
#        150
#        15903
#        30895
#        49212
#
# Disc length: 771 seconds
#
# Revision: 0
# Processed by: cddbd v1.5.2PL0 Copyright (c) Steve Scherf et al.
# Submitted via: ExactAudioCopy v0.99pb5
#
DISCID=1e030104
DTITLE=Duffy - Rain On Your Parade
DYEAR=2008
DGENRE=Soul
TTITLE0=Rain On Your Parade
TTITLE1=Syrup and Honey
TTITLE2=Smoke Without Fire
TTITLE3=Big Flame
EXTD=
EXTT0=
EXTT1=
EXTT2=
EXTT3=
PLAYORDER=
